<svg width="34" height="33" viewBox="0 0 34 33" fill="none" xmlns="http://www.w3.org/2000/svg">
<path d="M17.3334 0.388855C15.1447 0.388855 12.9774 0.819951 10.9554 1.65753C8.93326 2.49511 7.09594 3.72277 5.5483 5.27041C2.4227 8.39602 0.666748 12.6352 0.666748 17.0555C0.666748 24.4222 5.45008 30.6722 12.0667 32.8889C12.9001 33.0222 13.1667 32.5055 13.1667 32.0555V29.2389C8.55008 30.2389 7.56675 27.0055 7.56675 27.0055C6.80008 25.0722 5.71675 24.5555 5.71675 24.5555C4.20008 23.5222 5.83341 23.5555 5.83341 23.5555C7.50008 23.6722 8.38341 25.2722 8.38341 25.2722C9.83342 27.8055 12.2834 27.0555 13.2334 26.6555C13.3834 25.5722 13.8167 24.8389 14.2834 24.4222C10.5834 24.0055 6.70008 22.5722 6.70008 16.2222C6.70008 14.3722 7.33341 12.8889 8.41675 11.7055C8.25008 11.2889 7.66675 9.55552 8.58341 7.30552C8.58341 7.30552 9.98341 6.85552 13.1667 9.00552C14.4834 8.63886 15.9167 8.45552 17.3334 8.45552C18.7501 8.45552 20.1834 8.63886 21.5001 9.00552C24.6834 6.85552 26.0834 7.30552 26.0834 7.30552C27.0001 9.55552 26.4167 11.2889 26.2501 11.7055C27.3334 12.8889 27.9667 14.3722 27.9667 16.2222C27.9667 22.5889 24.0667 23.9889 20.3501 24.4055C20.9501 24.9222 21.5001 25.9389 21.5001 27.4889V32.0555C21.5001 32.5055 21.7667 33.0389 22.6167 32.8889C29.2334 30.6555 34.0001 24.4222 34.0001 17.0555C34.0001 14.8668 33.569 12.6996 32.7314 10.6775C31.8938 8.65537 30.6662 6.81805 29.1185 5.27041C27.5709 3.72277 25.7336 2.49511 23.7115 1.65753C21.6894 0.819951 19.5221 0.388855 17.3334 0.388855Z" fill="black"/>
</svg>
