<svg width="51" height="42" viewBox="0 0 51 42" fill="none" xmlns="http://www.w3.org/2000/svg">
<path d="M19.7262 41C21.2206 41 24.5083 40.9236 28.0712 39.5942C31.4936 38.3172 32.9772 36.7205 33.1759 36.4546C34.9692 34.0303 35.5801 31.0693 35.8202 28.427C36.1647 24.6364 36.1183 21.8685 35.8202 20.1845C37.9065 16.9053 41.3041 10.1873 38.2045 9.54914C35.1049 8.91101 29.7821 13.0267 27.4971 15.2424C27.1073 15.3986 24.9667 15.3986 19.7262 15.3986" stroke="black" stroke-width="2"/>
<path d="M19.7262 41C18.2318 41 14.9441 41 11.3811 39.6674C7.95873 38.3875 6.47518 36.7869 6.27649 36.5204C4.4832 34.0905 3.87226 31.1225 3.63214 28.4739C3.28767 24.6743 3.3341 21.8999 3.63214 20.212C1.54587 16.925 -1.85176 10.1911 1.24783 9.55143C4.34743 8.9118 9.67029 13.0372 11.9552 15.2582C12.345 15.4147 14.4856 15.4147 19.7262 15.4147" stroke="black" stroke-width="2"/>
<path d="M19.7262 31.9091V33.7273M19.7262 33.7273L23.3128 35.5455M19.7262 33.7273L16.1396 35.5455" stroke="black"/>
<path d="M18.6419 30.283C18.4643 30.0844 18.251 29.889 18.0058 29.7348C18.8565 29.3589 20.0728 29.1624 21.4151 29.7614C21.2995 29.8174 21.1844 29.8823 21.0716 29.9569C20.5693 30.2894 20.1259 30.8099 19.9171 31.5708H19.4624C19.2793 31.1674 19.0018 30.6855 18.6419 30.283Z" stroke="black"/>
<path d="M17.9329 26.0685C17.4232 28.4485 15.3027 32.7325 10.8988 30.8285C6.49477 28.9245 5.18988 27.4569 5.08794 26.961L5.49998 22.5L5.99998 21" stroke="black" stroke-width="2"/>
<path d="M20.5222 26.7094C20.4065 26.1694 20.7505 25.6378 21.2906 25.5222C21.8306 25.4065 22.3622 25.7505 22.4778 26.2906L20.5222 26.7094ZM34.3644 26.961L35.3611 26.8796L35.3728 27.0222L35.3439 27.1624L34.3644 26.961ZM34 22.5L34.9487 22.1838L34.9868 22.2983L34.9967 22.4186L34 22.5ZM22.4778 26.2906C22.7053 27.3528 23.2928 28.6886 24.2312 29.5237C24.686 29.9284 25.2109 30.2061 25.8211 30.3023C26.4312 30.3986 27.1988 30.3248 28.1568 29.9106L28.9504 31.7464C27.7064 32.2842 26.555 32.4428 25.5094 32.2779C24.4637 32.1129 23.5961 31.6357 22.9017 31.0178C21.5417 29.8076 20.8044 28.0272 20.5222 26.7094L22.4778 26.2906ZM28.1568 29.9106C30.3112 28.9792 31.664 28.1727 32.4724 27.5666C32.8771 27.2632 33.1303 27.0212 33.2771 26.8518C33.4488 26.6537 33.4119 26.6282 33.3849 26.7596L35.3439 27.1624C35.2659 27.5418 35.0277 27.8856 34.7884 28.1617C34.5243 28.4664 34.157 28.8033 33.6722 29.1668C32.7016 29.8945 31.2 30.7738 28.9504 31.7464L28.1568 29.9106ZM33.3677 27.0424L33.0033 22.5814L34.9967 22.4186L35.3611 26.8796L33.3677 27.0424ZM33.0513 22.8162L32.5513 21.3162L34.4487 20.6838L34.9487 22.1838L33.0513 22.8162Z" fill="black"/>
<path d="M17.9329 26.5C18.5 25.6514 21 25.6515 21.5 26.5" stroke="black" stroke-width="2"/>
<path d="M5.99998 20.5H4.99998V22.5H5.99998V20.5ZM5.99998 22.5L34.5 22.5V20.5L5.99998 20.5V22.5Z" fill="black"/>
<path d="M40.1104 1V19.4615L49.1834 33.5231C49.6253 34.204 49.9007 35.0228 49.9777 35.8855C50.0548 36.7483 49.9305 37.62 49.6192 38.4007C49.3078 39.1814 48.8219 39.8393 48.2174 40.2991C47.6128 40.7589 46.914 41.0018 46.2012 41H21.5195M26.2104 1H43.9014M30.4859 1.30303V12.2121" stroke="black" stroke-width="2" stroke-linecap="round" stroke-linejoin="round"/>
</svg>
