<svg width="34" height="34" viewBox="0 0 34 34" fill="none" xmlns="http://www.w3.org/2000/svg">
<path d="M17.3334 0.388855C8.13341 0.388855 0.666748 7.85552 0.666748 17.0555C0.666748 26.2555 8.13341 33.7222 17.3334 33.7222C26.5334 33.7222 34.0001 26.2555 34.0001 17.0555C34.0001 7.85552 26.5334 0.388855 17.3334 0.388855ZM25.0667 11.7222C24.8167 14.3555 23.7334 20.7555 23.1834 23.7055C22.9501 24.9555 22.4834 25.3722 22.0501 25.4222C21.0834 25.5055 20.3501 24.7889 19.4167 24.1722C17.9501 23.2055 17.1167 22.6055 15.7001 21.6722C14.0501 20.5889 15.1167 19.9889 16.0667 19.0222C16.3167 18.7722 20.5834 14.8889 20.6667 14.5389C20.6783 14.4858 20.6768 14.4308 20.6623 14.3785C20.6477 14.3262 20.6207 14.2783 20.5834 14.2389C20.4834 14.1555 20.3501 14.1889 20.2334 14.2055C20.0834 14.2389 17.7501 15.7889 13.2001 18.8555C12.5334 19.3055 11.9334 19.5389 11.4001 19.5222C10.8001 19.5055 9.66675 19.1889 8.81675 18.9055C7.76675 18.5722 6.95008 18.3889 7.01675 17.8055C7.05008 17.5055 7.46675 17.2055 8.25008 16.8889C13.1167 14.7722 16.3501 13.3722 17.9667 12.7055C22.6001 10.7722 23.5501 10.4389 24.1834 10.4389C24.3167 10.4389 24.6334 10.4722 24.8334 10.6389C25.0001 10.7722 25.0501 10.9555 25.0667 11.0889C25.0501 11.1889 25.0834 11.4889 25.0667 11.7222Z" fill="black"/>
</svg>
