<svg width="36" height="23" viewBox="0 0 36 23" fill="none" xmlns="http://www.w3.org/2000/svg">
<path d="M21.6668 9.30402V3.14402C21.6668 1.75569 21.4151 1.47736 20.0335 1.47736L16.1168 1.38902C14.8968 1.38902 14.2868 1.38902 14.0401 1.78402C13.7935 2.17902 14.0668 2.72069 14.6118 3.80069C14.9151 4.40069 15.0785 4.83569 15.0785 5.50902V9.94236C15.0785 11.3424 15.0785 12.044 14.5451 12.2524C14.0118 12.459 13.5701 11.989 12.6835 11.049C10.5168 8.74236 9.3868 5.86236 8.64513 2.72236C8.4918 2.07236 8.41513 1.74736 8.18513 1.56736C7.95513 1.38736 7.6268 1.38902 6.97347 1.38902H3.3068C2.50347 1.38902 2.1018 1.38902 1.85013 1.67236C1.60013 1.95736 1.64847 2.32069 1.74513 3.04569C2.62513 9.59069 8.38013 20.3224 19.0118 21.3457C20.8951 21.5257 21.6668 21.0174 21.6668 18.954C21.6668 17.784 21.6418 15.894 23.1135 15.6457C23.8851 15.5157 24.4035 15.7907 25.2651 16.5124C26.7585 17.7657 27.5418 19.2957 28.0868 20.4574C28.4485 21.2274 28.7168 21.389 29.5668 21.389H33.0235C34.7701 21.389 35.2451 20.9624 34.4668 19.3224C33.5872 17.4831 32.3418 15.8425 30.8068 14.5007C29.7468 13.589 29.2185 13.134 29.1901 12.7974C29.1585 12.4624 29.5468 11.9874 30.3235 11.0374C31.8235 9.20069 33.8668 6.31902 34.8201 3.26069C35.2935 1.74402 34.8485 1.38902 33.3135 1.38902H30.2085C28.7035 1.38902 28.7051 1.33736 28.3501 3.04402C27.7735 5.81236 25.8868 8.47402 24.1135 10.2857C23.2718 11.1457 22.7635 11.664 22.2385 11.4524C21.7135 11.2407 21.6668 10.5974 21.6668 9.30402Z" stroke="black" stroke-width="1.5" stroke-linecap="round" stroke-linejoin="round"/>
</svg>
