<svg width="36" height="28" viewBox="0 0 36 28" fill="none" xmlns="http://www.w3.org/2000/svg">
<path d="M13.8083 28C14.8544 28 17.1558 27.9465 19.6499 27.0159C22.0456 26.122 23.084 25.0043 23.2231 24.8182C24.4784 23.1212 24.9061 21.0485 25.0742 19.1989C25.3153 16.5455 25.2828 14.608 25.0742 13.4292C26.5346 11.1337 28.9129 6.4311 26.7432 5.98442C24.5735 5.53773 20.8475 8.41874 19.248 9.96973C18.9752 10.079 17.4767 10.079 13.8083 10.079" stroke="#443B3B"/>
<path d="M13.8083 28.0001C12.7623 28.0001 10.4609 28.0001 7.96681 27.0673C5.57113 26.1713 4.53265 25.0509 4.39357 24.8644C3.13826 23.1634 2.7106 21.0858 2.54252 19.2318C2.30139 16.5721 2.33389 14.63 2.54252 13.4484C1.08213 11.1475 -1.29621 6.43379 0.873507 5.98605C3.04322 5.53831 6.76923 8.42612 8.3687 9.98078C8.64155 10.0904 10.14 10.0904 13.8083 10.0904" stroke="#443B3B"/>
<path d="M14 22.1053V23.579M14 23.579L16.2105 25.0527M14 23.579L11.7894 25.0527" stroke="#443B3B" stroke-width="0.5"/>
<path d="M13.1256 20.6166C12.9342 20.3495 12.6804 20.0847 12.3731 19.955C12.683 19.7265 13.0909 19.5205 13.5605 19.4418C14.1564 19.342 14.8727 19.4432 15.6421 20.0022C15.444 20.0731 15.2358 20.1837 15.0399 20.3456C14.6672 20.6536 14.3511 21.1371 14.2254 21.8552H13.7405C13.6135 21.4817 13.4041 21.0054 13.1256 20.6166Z" stroke="#443B3B" stroke-width="0.5"/>
<path d="M12.553 17.548C12.1962 19.214 10.7119 22.2128 7.6291 20.88C4.5463 19.5472 3.63288 18.5198 3.56152 18.1727L3.84996 15.05L4.19996 14" stroke="#443B3B"/>
<path d="M14.5614 17.9547C14.5036 17.6847 14.6756 17.4189 14.9456 17.3611C15.2156 17.3033 15.4814 17.4753 15.5392 17.7453L14.5614 17.9547ZM19.9878 20.8799L20.1863 21.3389H20.1863L19.9878 20.8799ZM24.0554 18.1727L24.5538 18.132L24.5596 18.2033L24.5452 18.2734L24.0554 18.1727ZM23.8003 15.05L24.2747 14.8919L24.2937 14.9491L24.2987 15.0093L23.8003 15.05ZM15.5392 17.7453C15.7039 18.5144 16.1302 19.4939 16.8292 20.116C17.1715 20.4206 17.5733 20.6349 18.0439 20.7092C18.5146 20.7834 19.0903 20.7233 19.7894 20.421L20.1863 21.3389C19.344 21.703 18.5765 21.8056 17.8881 21.697C17.1997 21.5884 16.6266 21.2743 16.1644 20.863C15.2546 20.0534 14.7535 18.8516 14.5614 17.9547L15.5392 17.7453ZM19.7894 20.421C21.307 19.7649 22.2689 19.1931 22.851 18.7566C23.1423 18.5382 23.3309 18.3593 23.4454 18.2272C23.5724 18.0808 23.5741 18.0311 23.5657 18.072L24.5452 18.2734C24.5011 18.4879 24.3618 18.6967 24.2011 18.8822C24.0279 19.082 23.7822 19.3083 23.4509 19.5567C22.7877 20.0539 21.7515 20.6622 20.1863 21.3389L19.7894 20.421ZM23.5571 18.2134L23.302 15.0907L24.2987 15.0093L24.5538 18.132L23.5571 18.2134ZM23.326 15.2081L22.976 14.1581L23.9247 13.8419L24.2747 14.8919L23.326 15.2081Z" fill="#443B3B"/>
<path d="M12.553 17.8499C12.95 17.2559 14.7 17.2559 15.05 17.8499" stroke="#443B3B"/>
<path d="M4.20007 13.85H3.70007V14.85H4.20007V13.85ZM4.20007 14.85L24.1501 14.85V13.85L4.20007 13.85V14.85Z" fill="#443B3B"/>
<path d="M28.0773 0V12.9231L34.4283 22.7661C34.7377 23.2428 34.9304 23.816 34.9844 24.4199C35.0383 25.0238 34.9513 25.634 34.7334 26.1805C34.5154 26.727 34.1753 27.1875 33.7521 27.5094C33.3289 27.8312 32.8398 28.0012 32.3408 28H15.0636M18.3472 0H30.7309M21.3401 0.212121V7.84849" stroke="#443B3B" stroke-linecap="round" stroke-linejoin="round"/>
</svg>
